<svg class="rd-svg" viewBox="0 0 660 486" role="img" aria-labelledby="mt-t mt-d" xmlns="http://www.w3.org/2000/svg">
  <title id="mt-t">Matched-score teacher test from Table 5</title>
  <desc id="mt-d">Three teachers for a 7B student. The 3B checkpoint scores slightly higher than the 1.5B endpoint but its student peaks 3.7 points lower. Only the joint law, which uses both teacher size and score, predicts that drop; the size-only and score-only laws predict the 3B checkpoint should be better.</desc>
  <line x1="60.0" y1="40" x2="60.0" y2="420" class="s-faint" stroke-width="0.8"/>
  <text x="60.0" y="444.0" text-anchor="middle" font-size="16" class="t-muted">72</text>
  <line x1="172.0" y1="40" x2="172.0" y2="420" class="s-faint" stroke-width="0.8"/>
  <text x="172.0" y="444.0" text-anchor="middle" font-size="16" class="t-muted">74</text>
  <line x1="284.0" y1="40" x2="284.0" y2="420" class="s-faint" stroke-width="0.8"/>
  <text x="284.0" y="444.0" text-anchor="middle" font-size="16" class="t-muted">76</text>
  <line x1="396.0" y1="40" x2="396.0" y2="420" class="s-faint" stroke-width="0.8"/>
  <text x="396.0" y="444.0" text-anchor="middle" font-size="16" class="t-muted">78</text>
  <line x1="508.0" y1="40" x2="508.0" y2="420" class="s-faint" stroke-width="0.8"/>
  <text x="508.0" y="444.0" text-anchor="middle" font-size="16" class="t-muted">80</text>
  <line x1="620.0" y1="40" x2="620.0" y2="420" class="s-faint" stroke-width="0.8"/>
  <text x="620.0" y="444.0" text-anchor="middle" font-size="16" class="t-muted">82</text>
  <text x="340.0" y="472.0" text-anchor="middle" font-size="17">peak gold score of the 7B student (%)</text>
  <text x="60.0" y="58.0" text-anchor="start" font-size="18" font-weight="600">Teacher: 1.5B RL endpoint (scores 63.6)</text>
  <line x1="261.6" y1="92" x2="368.0" y2="92" class="s-faint" stroke-width="6" stroke-linecap="round"/>
  <rect x="333.0" y="85" width="14" height="14" class="f-muted"/>
  <polygon points="261.6,83 269.6,98 253.6,98" class="f-muted"/>
  <polygon points="345.6,82 355.6,92 345.6,102 335.6,92" class="f-predict"/>
  <circle cx="368.0" cy="92" r="9" class="f-none s-paper" stroke-width="3.5"/>
  <text x="368.0" y="126.0" text-anchor="middle" font-size="16" class="t-paper">observed 77.5</text>
  <text x="60.0" y="186.0" text-anchor="start" font-size="18" font-weight="600">Teacher: 3B checkpoint, step 58 (scores 66.0)</text>
  <line x1="160.8" y1="220" x2="480.0" y2="220" class="s-faint" stroke-width="6" stroke-linecap="round"/>
  <rect x="473.0" y="213" width="14" height="14" class="f-muted"/>
  <polygon points="300.8,211 308.8,226 292.8,226" class="f-muted"/>
  <polygon points="177.6,210 187.6,220 177.6,230 167.6,220" class="f-predict"/>
  <circle cx="160.8" cy="220" r="9" class="f-none s-paper" stroke-width="3.5"/>
  <text x="160.8" y="254.0" text-anchor="middle" font-size="16" class="t-paper">observed 73.8</text>
  <text x="60.0" y="314.0" text-anchor="start" font-size="18" font-weight="600">Teacher: 3B RL endpoint (scores 73.6)</text>
  <line x1="435.2" y1="348" x2="524.8" y2="348" class="s-faint" stroke-width="6" stroke-linecap="round"/>
  <rect x="473.0" y="341" width="14" height="14" class="f-muted"/>
  <polygon points="435.2,339 443.2,354 427.2,354" class="f-muted"/>
  <polygon points="485.6,338 495.6,348 485.6,358 475.6,348" class="f-predict"/>
  <circle cx="524.8" cy="348" r="9" class="f-none s-paper" stroke-width="3.5"/>
  <text x="524.8" y="382.0" text-anchor="middle" font-size="16" class="t-paper">observed 80.3</text>
  <circle cx="68" cy="16" r="7" class="f-none s-paper" stroke-width="3"/>
  <text x="82.0" y="22.0" text-anchor="start" font-size="16">observed</text>
  <polygon points="180,6 190,16 180,26 170,16" class="f-predict"/>
  <text x="196.0" y="22.0" text-anchor="start" font-size="16">joint law</text>
  <rect x="286" y="9" width="14" height="14" class="f-muted"/>
  <text x="306.0" y="22.0" text-anchor="start" font-size="16">size-only</text>
  <polygon points="400,7 408,24 392,24" class="f-muted"/>
  <text x="416.0" y="22.0" text-anchor="start" font-size="16">score-only</text>
</svg>
