<svg class="rd-svg" viewBox="0 0 640 360" role="img" aria-labelledby="cs-t cs-d" xmlns="http://www.w3.org/2000/svg">
<title id="cs-t">References in the survey by first public year</title>
<desc id="cs-d">Bar chart of the 412 references by first public year: 10 up to 2015, then 1, 9, 10, 8, 10, 10, 24, 33, 47, 53, and 197 in 2026 up to 29 September.</desc>
<line x1="64" y1="280" x2="630" y2="280" class="s-muted" stroke-width="1.2"/>
<rect x="72.0" y="268.5" width="34" height="11.5" rx="3" class="f-paper"/>
<text x="89.0" y="262.5" text-anchor="middle" font-size="17">10</text>
<text x="89.0" y="304" text-anchor="middle" font-size="17" class="t-muted">≤15</text>
<rect x="118.5" y="278.9" width="34" height="1.1" rx="3" class="f-paper"/>
<text x="135.5" y="272.9" text-anchor="middle" font-size="17">1</text>
<text x="135.5" y="304" text-anchor="middle" font-size="17" class="t-muted">16</text>
<rect x="165.0" y="269.6" width="34" height="10.3" rx="3" class="f-paper"/>
<text x="182.0" y="263.6" text-anchor="middle" font-size="17">9</text>
<text x="182.0" y="304" text-anchor="middle" font-size="17" class="t-muted">17</text>
<rect x="211.5" y="268.5" width="34" height="11.5" rx="3" class="f-paper"/>
<text x="228.5" y="262.5" text-anchor="middle" font-size="17">10</text>
<text x="228.5" y="304" text-anchor="middle" font-size="17" class="t-muted">18</text>
<rect x="258.0" y="270.8" width="34" height="9.2" rx="3" class="f-paper"/>
<text x="275.0" y="264.8" text-anchor="middle" font-size="17">8</text>
<text x="275.0" y="304" text-anchor="middle" font-size="17" class="t-muted">19</text>
<rect x="304.5" y="268.5" width="34" height="11.5" rx="3" class="f-paper"/>
<text x="321.5" y="262.5" text-anchor="middle" font-size="17">10</text>
<text x="321.5" y="304" text-anchor="middle" font-size="17" class="t-muted">20</text>
<rect x="351.0" y="268.5" width="34" height="11.5" rx="3" class="f-paper"/>
<text x="368.0" y="262.5" text-anchor="middle" font-size="17">10</text>
<text x="368.0" y="304" text-anchor="middle" font-size="17" class="t-muted">21</text>
<rect x="397.5" y="252.4" width="34" height="27.6" rx="3" class="f-paper"/>
<text x="414.5" y="246.4" text-anchor="middle" font-size="17">24</text>
<text x="414.5" y="304" text-anchor="middle" font-size="17" class="t-muted">22</text>
<rect x="444.0" y="242.1" width="34" height="37.9" rx="3" class="f-paper"/>
<text x="461.0" y="236.1" text-anchor="middle" font-size="17">33</text>
<text x="461.0" y="304" text-anchor="middle" font-size="17" class="t-muted">23</text>
<rect x="490.5" y="225.9" width="34" height="54.0" rx="3" class="f-paper"/>
<text x="507.5" y="219.9" text-anchor="middle" font-size="17">47</text>
<text x="507.5" y="304" text-anchor="middle" font-size="17" class="t-muted">24</text>
<rect x="537.0" y="219.1" width="34" height="60.9" rx="3" class="f-paper"/>
<text x="554.0" y="213.1" text-anchor="middle" font-size="17">53</text>
<text x="554.0" y="304" text-anchor="middle" font-size="17" class="t-muted">25</text>
<rect x="583.5" y="53.5" width="34" height="226.5" rx="3" class="f-predict"/>
<text x="600.5" y="47.5" text-anchor="middle" font-size="17">197</text>
<text x="600.5" y="304" text-anchor="middle" font-size="17" class="t-muted">26†</text>
<text x="347" y="340" text-anchor="middle" font-size="18" class="t-muted">first public year (20xx); † = 2026 to 29 Sep</text>
<text x="26" y="170" text-anchor="middle" font-size="17" transform="rotate(-90 26 170)">references</text></svg>